# AST/ASF file generated using VICON BodyLanguage
# -----------------------------------------------
:version 1.10
:name VICON
:units
  mass 1.0
  length 0.45
  angle deg
:documentation
   .ast/.asf automatically generated from VICON data using
   VICON BodyBuilder and BodyLanguage model FoxedUp or BRILLIANT.MOD
:root
   order TX TY TZ RX RY RZ
   axis XYZ
   position 0 0 0  
   orientation 0 0 0 
:bonedata
  begin
     id 1 
     name lhipjoint
     direction 0.611804 -0.747784 0.257906 
     length 2.29243 
     axis 0 0 0  XYZ
  end
  begin
     id 2 
     name lfemur
     direction 0.34202 -0.939693 0  
     length 7.31159  
     axis 0 0 20  XYZ
    dof rx ry rz
    limits (-160.0 20.0)
           (-70.0 70.0)
           (-60.0 70.0)
  end
  begin
     id 3 
     name ltibia
     direction 0.34202 -0.939693 0   
     length 7.33391   
     axis 0 0 20   XYZ
    dof rx
    limits (-10.0 170.0)
  end
  begin
     id 4 
     name lfoot
     direction 0.122263 -0.335914 0.933924   
     length 1.76083   
     axis -90 7.62852e-016 20   XYZ
    dof rx rz
    limits (-45.0 90.0)
           (-70.0 20.0)
  end
  begin
     id 5 
     name ltoes
     direction 1.53533e-011 -4.2177e-011 1   
     length 0.879206   
     axis -90 7.62852e-016 20   XYZ
    dof rx
    limits (-90.0 20.0)
  end
  begin
     id 6 
     name rhipjoint
     direction -0.646469 -0.721248 0.248754   
     length 2.37677  
     axis 0 0 0  XYZ 
  end
  begin
     id 7 
     name rfemur
     direction -0.34202 -0.939693 0   
     length 7.18623   
     axis 0 0 -20   XYZ
    dof rx ry rz
    limits (-160.0 20.0)
           (-70.0 70.0)
           (-70.0 60.0)
  end
  begin
     id 8 
     name rtibia
     direction -0.34202 -0.939693 0   
     length 7.36567   
     axis 0 0 -20   XYZ
    dof rx
    limits (-10.0 170.0)
 end
 begin
     id 9 
     name rfoot
     direction -0.126681 -0.348054 0.928876   
     length 1.71902  
     axis -90 -7.62852e-016 -20   XYZ
    dof rx rz
    limits (-45.0 90.0)
           (-20.0 70.0)
  end
  begin
     id 10 
     name rtoes
     direction -1.53551e-011 -4.21898e-011 1   
     length 0.857792   
     axis -90 -7.62852e-016 -20   XYZ
    dof rx
    limits (-90.0 20.0)
  end
  begin
     id 11 
     name lowerback
     direction 0.0106509 0.999778 0.0181844   
     length 2.07668   
     axis 0 0 0   XYZ
    dof rx ry rz
    limits (-20.0 45.0)
           (-30.0 30.0)
           (-30.0 30.0)
  end
  begin
     id 12 
     name upperback
     direction -0.00456018 0.999989 -0.000590935   
     length 2.08011   
     axis 0 0 0   XYZ
    dof rx ry rz
    limits (-20.0 45.0)
           (-30.0 30.0)
           (-30.0 30.0)
  end
  begin
     id 13 
     name thorax
     direction -0.00910382 0.999916 -0.00923765   
     length 2.07397   
     axis 0 0 0   XYZ
    dof rx ry rz
    limits (-20.0 45.0)
           (-30.0 30.0)
           (-30.0 30.0)
  end
  begin
     id 14 
     name lowerneck
     direction 0.00171967 0.99778 0.0665733   
     length 1.67556   
     axis 0 0 0   XYZ
    dof rx ry rz
    limits (-20.0 45.0)
           (-30.0 30.0)
           (-30.0 30.0)
  end
  begin
     id 15 
     name upperneck
     direction -0.0143166 0.991302 -0.130828   
     length 1.68462   
     axis 0 0 0   XYZ
    dof rx ry rz
    limits (-20.0 45.0)
           (-30.0 30.0)
           (-30.0 30.0)
  end
  begin
     id 16
     name head
     direction -0.00606378 0.998665 -0.0512995  
     length 1.69269  
     axis 0 0 0   XYZ
    dof rx ry rz
    limits (-20.0 45.0)
           (-30.0 30.0)
           (-30.0 30.0)
  end
  begin
     id 17 
     name lclavicle
     direction 0.9638 0.179341 0.197297  
     length 4.12888  
     axis 0 0 0   XYZ
    dof ry rz
    limits (-20.0 10.0)
           (0.0 20.0)
  end
  begin
     id 18 
     name lhumerus
     direction 1 -4.48972e-011 -2.47351e-027   
     length 5.01834   
     axis -180 -30 -90   XYZ
    dof rx ry rz
    limits (-60.0 90.0)
           (-90.0 90.0)
           (-90.0 90.0)
  end
  begin
     id 19
     name lradius
     direction 1 -4.48965e-011 1.51591e-026   
     length 3.4869   
     axis -180 -30 -90   XYZ
    dof rx
    limits (-10.0 170.0)
  end
  begin
     id 20
     name lwrist
     direction 1 -4.48957e-011 2.70032e-026   
     length 1.74345   
     axis -1.81515e-014 90 90   XYZ
    dof ry
    limits (-180.0 0.0)
 end
  begin
     id 21 
     name lhand
     direction 1 -4.48951e-011 5.40064e-026   
     length 0.76799   
     axis -3.44607e-014 90 90   XYZ
    dof rx rz
    limits (-90.0 90.0)
           (-45.0 45.0)
  end
  begin
     id 22 
     name lfingers
     direction 1 -4.48971e-011 1.08013e-025   
     length 0.619174   
     axis -6.89214e-014 90 90   XYZ
    dof rx
    limits (0.0 90.0)
  end
  begin
     id 23
     name lthumb
     direction 0.707107 -6.34931e-011 0.707107   
     length 0.889013   
     axis -90 45 2.85299e-015   XYZ
    dof rx rz
    limits (-45.0 45.0)
           (-45.0 45.0)
  end
  begin
     id 24 
     name rclavicle
     direction -0.961409 0.252588 0.109054   
     length 4.04305  
     axis 0 0 0   XYZ 
    dof ry rz
    limits (-10.0 20.0)
           (-20.0 0.0)
  end
  begin
     id 25 
     name rhumerus
     direction -1 -4.4897e-011 1.33872e-017  
     length 4.70164   
     axis -180 30 90   XYZ
    dof rx ry rz
    limits (-90.0 60.0)
           (-90.0 90.0)
           (-90.0 90.0)
  end
  begin
     id 26 
     name rradius
     direction -1 -4.48954e-011 1.83844e-026   
     length 3.49911   
     axis -180 30 90   XYZ
    dof rx
    limits (-10.0 170.0)
  end
  begin
     id 27 
     name rwrist
     direction -1 -4.49008e-011 2.70032e-026   
     length 1.74955   
     axis -1.81515e-014 -90 -90   XYZ
    dof ry
    limits (-180.0 0.0)
  end
  begin
     id 28
     name rhand
     direction -1 -4.48916e-011 5.40064e-026   
     length 0.739335   
     axis -3.44607e-014 -90 -90   XYZ
    dof rx rz
    limits (-90.0 90.0)
           (-45.0 45.0)
  end
  begin
     id 29
     name rfingers
     direction -1 -4.48987e-011 1.08013e-025   
     length 0.596071   
     axis -6.89214e-014 -90 -90   XYZ
    dof rx
    limits (0.0 90.0)
  end
  begin
     id 30
     name rthumb
     direction -0.707107 -6.34935e-011 0.707107   
     length 0.855843   
     axis -90 -45 -2.85299e-015   XYZ
    dof rx rz
    limits (-45.0 45.0)
           (-45.0 45.0)
  end
:hierarchy
  begin
    root lhipjoint rhipjoint lowerback
    lhipjoint lfemur
    lfemur ltibia
    ltibia lfoot
    lfoot ltoes
    rhipjoint rfemur
    rfemur rtibia
    rtibia rfoot
    rfoot rtoes
    lowerback upperback
    upperback thorax
    thorax lowerneck lclavicle rclavicle
    lowerneck upperneck
    upperneck head
    lclavicle lhumerus
    lhumerus lradius
    lradius lwrist
    lwrist lhand lthumb
    lhand lfingers
    rclavicle rhumerus
    rhumerus rradius
    rradius rwrist
    rwrist rhand rthumb
    rhand rfingers
  end

#!OML:ASF I:\salsa\salsa 7_09\Patient 1\Session 1\dancermale.ASF
:FULLY-SPECIFIED
:DEGREES
648
root -5.39687 16.8711 0.78076 532.183 81.373 537.932
lowerback 0.870275 -2.90709 0.673408
upperback 4.60638 -3.65142 -3.69479
thorax 3.98154 -1.67188 -4.28595
lowerneck -8.50408 0.521667 3.09112
upperneck 28.2247 0.410061 2.21781
head 10.4172 1.08693 0.362245
rclavicle -2.87244e-014 -1.43125e-014
rhumerus -40.2061 29.3088 -120.626
rradius 79.9476
rwrist 8.40251
rhand -9.50288 28.8949
rfingers 7.12502
rthumb 16.4623 -0.426603
lclavicle -2.87244e-014 -1.43125e-014
lhumerus -55.2762 -20.1353 91.0856
lradius 84.2206
lwrist 17.0271
lhand -22.3534 31.873
lfingers 7.12502
lthumb 4.06749 -298.186
rfemur 3.88832 -16.8603 19.7703
rtibia 27.1183
rfoot -25.1822 -15.2508
rtoes -33.1147
lfemur -31.4416 14.7956 -19.2618
ltibia 66.5103
lfoot -12.003 17.4455
ltoes 21.8403
649
root -5.25078 16.8512 0.765931 532.123 78.9674 537.988
lowerback 0.97127 -2.55754 0.51379
upperback 4.67806 -3.17821 -3.54538
thorax 4.05202 -1.43918 -4.02944
lowerneck -8.56432 -0.0112381 3.24009
upperneck 28.3279 -0.290226 2.0104
head 10.4637 0.775666 0.187587
rclavicle 1.00386e-014 4.77083e-014
rhumerus -40.2836 28.2621 -121.26
rradius 80.1567
rwrist 9.13671
rhand -8.77077 28.1892
rfingers 7.12502
rthumb 17.1671 -1.07246
lclavicle 1.00386e-014 4.77083e-014
lhumerus -55.0157 -20.5691 89.9732
lradius 85.8587
lwrist 17.4627
lhand -21.2271 31.8288
lfingers 7.12502
lthumb 5.15507 -298.254
rfemur 4.95444 -18.1008 19.2806
rtibia 26.9283
rfoot -25.4246 -16.2869
rtoes -32.865
lfemur -32.5459 14.9548 -20.3691
ltibia 62.7895
lfoot -11.2713 17.6993
ltoes 26.9402
650
root -5.09109 16.8369 0.739687 530.762 76.4703 536.99
lowerback 1.19986 -2.24189 0.233157
upperback 4.83042 -2.73437 -3.55454
thorax 4.12627 -1.21828 -3.86733
lowerneck -8.50465 -0.341181 3.57617
upperneck 28.4109 -0.721231 1.79756
head 10.4787 0.608803 0.00872269
rclavicle -2.5345e-015 -1.03368e-014
rhumerus -40.4154 27.4392 -121.927
rradius 80.4096
rwrist 9.77614
rhand -8.14006 27.4955
rfingers 7.12502
rthumb 17.7741 -1.71215
lclavicle -2.5345e-015 -1.03368e-014
lhumerus -54.4887 -20.8168 88.663
lradius 87.147
lwrist 17.9766
lhand -20.1789 31.1051
lfingers 7.12502
lthumb 6.16709 -299.005
rfemur 6.51622 -18.9955 18.5103
rtibia 26.5118
rfoot -25.5759 -17.5352
rtoes -32.4969
lfemur -32.8055 15.4385 -21.9353
ltibia 58.8124
lfoot -9.50252 17.9265
ltoes 30.6101
651
root -4.91595 16.8311 0.702577 528.988 73.8999 535.701
lowerback 1.21971 -2.01537 -0.23277
upperback 5.23023 -2.38275 -3.60963
thorax 4.57468 -1.03894 -3.66825
lowerneck -8.89702 -0.433076 3.68218
upperneck 28.5782 -0.855535 1.76163
head 10.6172 0.572862 -0.0337443
rclavicle 1.44119e-014 -2.38542e-014
rhumerus -40.3968 27.2789 -122.488
rradius 80.7014
rwrist 9.79293
rhand -7.54907 27.0269
rfingers 7.12502
rthumb 18.3427 -2.12826
lclavicle 1.44119e-014 -2.38542e-014
lhumerus -53.4007 -20.629 87.1457
lradius 88.1366
lwrist 18.6328
lhand -19.1167 30.1207
lfingers 7.12502
lthumb 7.19248 -300.022
rfemur 8.45087 -19.5274 17.6292
rtibia 25.7802
rfoot -25.5743 -19.0983
rtoes -32.1673
lfemur -32.34 16.332 -23.8034
ltibia 55.0356
lfoot -7.93541 17.9264
ltoes 34.0341
652
root -4.7308 16.8203 0.670943 527.998 70.9627 535.125
lowerback 1.00485 -1.9511 -1.01688
upperback 5.73614 -2.23536 -3.46711
thorax 5.27489 -0.980948 -3.10115
lowerneck -9.43774 -0.43508 3.68983
upperneck 28.7251 -0.851035 1.69264
head 10.779 0.582307 -0.0562405
rclavicle -7.35503e-015 -4.05521e-014
rhumerus -40.3444 27.6376 -122.846
rradius 80.963
rwrist 9.3257
rhand -7.2808 26.0622
rfingers 7.12502
rthumb 18.6007 -3.06853
lclavicle -7.35503e-015 -4.05521e-014
lhumerus -52.1227 -19.9816 85.7987
lradius 89.0989
lwrist 19.0978
lhand -18.1567 29.4926
lfingers 7.12502
lthumb 8.11912 -300.683
rfemur 10.3254 -20.1621 16.9575
rtibia 25.039
rfoot -25.5595 -20.9598
rtoes -31.7732
lfemur -31.7538 17.2004 -25.719
ltibia 51.8792
lfoot -5.41403 18.0621
ltoes 35.7713
653
root -4.54133 16.8089 0.637691 527.345 67.7617 534.78
lowerback 0.660588 -1.95363 -2.07418
upperback 6.17386 -2.1697 -3.2007
thorax 5.99194 -0.991737 -2.25826
lowerneck -9.67796 -0.344118 3.77709
upperneck 28.7982 -0.669234 1.5096
head 10.8545 0.667506 -0.11271
rclavicle 1.20762e-014 -2.38542e-015
rhumerus -40.2722 27.8843 -122.833
rradius 80.9956
rwrist 8.96292
rhand -6.69515 25.8013
rfingers 7.12502
rthumb 19.164 -3.27456
lclavicle 1.20762e-014 -2.38542e-015
lhumerus -51.0505 -19.1735 84.7854
lradius 90.0949
lwrist 19.4515
lhand -17.414 29.0086
lfingers 7.12502
lthumb 8.83585 -301.196
rfemur 12.0212 -21.3726 16.1355
rtibia 24.6693
rfoot -25.7345 -22.6525
rtoes -31.2866
lfemur -30.9439 17.9676 -27.6259
ltibia 49.5056
lfoot -2.65736 18.2376
ltoes 35.7798
654
root -4.37819 16.8061 0.580849 526.758 64.8265 534.075
lowerback 0.133973 -1.91431 -2.99096
upperback 6.40749 -2.04801 -3.00367
thorax 6.59308 -0.979789 -1.56425
lowerneck -9.86129 -0.164091 3.96188
upperneck 28.9238 -0.312624 1.11953
head 10.9406 0.820473 -0.239151
rclavicle 2.08724e-015 4.77083e-014
rhumerus -40.6048 28.2504 -122.744
rradius 81.2777
rwrist 8.07811
rhand -6.46206 25.4283
rfingers 7.12502
rthumb 19.3881 -3.62514
lclavicle 2.08724e-015 4.77083e-014
lhumerus -50.0918 -18.0575 83.9254
lradius 90.9272
lwrist 19.6823
lhand -16.8913 28.0571
lfingers 7.12502
lthumb 9.34022 -302.17
rfemur 12.8862 -23.0324 14.9441
rtibia 25.1651
rfoot -26.2807 -23.5679
rtoes -30.0064
lfemur -30.2488 18.6797 -29.718
ltibia 47.8198
lfoot -1.09953 17.7087
ltoes 35.5621
655
root -4.22479 16.7986 0.518564 526.38 62.0133 533.573
lowerback -0.239395 -1.89325 -3.66297
upperback 6.5424 -1.95551 -2.94681
thorax 6.98599 -0.969365 -1.1441
lowerneck -9.91139 0.120292 4.39084
upperneck 29.095 0.192507 0.62444
head 11.0242 1.05899 -0.42697
rclavicle 3.18055e-015 1.90833e-014
rhumerus -41.1967 28.4778 -122.736
rradius 81.6819
rwrist 7.15585
rhand -6.2402 25.3707
rfingers 7.12502
rthumb 19.6014 -3.66117
lclavicle 3.18055e-015 1.90833e-014
lhumerus -49.3032 -16.8659 82.9943
lradius 91.7202
lwrist 20.0524
lhand -15.664 28.0179
lfingers 7.12502
lthumb 10.5243 -302.266
rfemur 13.3488 -24.8275 13.728
rtibia 26.4672
rfoot -25.6883 -24.9219
rtoes -31.9965
lfemur -29.1806 19.0706 -31.3644
ltibia 46.4729
lfoot -0.233931 16.6117
ltoes 36.9941
656
root -4.03146 16.7892 0.424712 526.129 59.5779 533.362
lowerback -1.10591 -1.79903 -4.04353
upperback 6.75448 -1.73933 -2.90704
thorax 7.73558 -0.887247 -0.913625
lowerneck -9.82626 0.457763 4.79833
upperneck 29.3934 0.796379 0.18479
head 11.1377 1.35646 -0.577513
rclavicle -1.02424e-013 7.15625e-015
rhumerus -41.909 28.6377 -122.749
rradius 82.0264
rwrist 6.20013
rhand -5.97071 25.3959
rfingers 7.12502
rthumb 19.8605 -3.60934
lclavicle -1.02424e-013 7.15625e-015
lhumerus -48.8679 -15.7999 82.199
lradius 92.5053
lwrist 20.5894
lhand -15.3842 27.6765
lfingers 7.12502
lthumb 10.7942 -302.621
rfemur 13.9405 -26.3084 12.3268
rtibia 28.2804
rfoot -25.213 -25.4358
rtoes -33.2475
lfemur -27.1503 18.8294 -32.2318
ltibia 44.9839
lfoot -0.546119 14.7718
ltoes 33.7685
